<svg xmlns="http://www.w3.org/2000/svg" width="1200" height="400" viewBox="0 0 1200 400" role="img" aria-labelledby="title desc">
  <title id="title">AI 小说作家</title>
  <desc id="desc">暖色编辑部写作桌、稿纸与小说生产流程。</desc>
  <rect width="1200" height="400" fill="#11100f"/>
  <circle cx="1030" cy="70" r="210" fill="#845a2b" opacity="0.14"/>
  <circle cx="1080" cy="360" r="250" fill="#c9a968" opacity="0.07"/>
  <g transform="translate(750 58) rotate(-4 160 140)">
    <rect x="25" y="24" width="310" height="270" rx="8" fill="#2a2520" stroke="#6c5a45"/>
    <rect width="310" height="270" rx="8" fill="#f4eadc"/>
    <rect x="28" y="28" width="92" height="8" rx="4" fill="#845a2b" opacity="0.8"/>
    <rect x="28" y="52" width="230" height="5" rx="2.5" fill="#8f877d" opacity="0.45"/>
    <rect x="28" y="68" width="252" height="5" rx="2.5" fill="#8f877d" opacity="0.35"/>
    <rect x="28" y="84" width="210" height="5" rx="2.5" fill="#8f877d" opacity="0.35"/>
    <g transform="translate(28 126)">
      <circle cx="8" cy="8" r="8" fill="#845a2b"/>
      <line x1="28" y1="8" x2="85" y2="8" stroke="#845a2b" stroke-width="3"/>
      <circle cx="105" cy="8" r="8" fill="#c9a968"/>
      <line x1="125" y1="8" x2="182" y2="8" stroke="#c9a968" stroke-width="3"/>
      <circle cx="202" cy="8" r="8" fill="#11100f"/>
      <line x1="222" y1="8" x2="252" y2="8" stroke="#11100f" stroke-width="3"/>
    </g>
    <rect x="28" y="176" width="252" height="48" rx="5" fill="#e8d9c5"/>
    <rect x="42" y="190" width="156" height="5" rx="2.5" fill="#845a2b" opacity="0.55"/>
    <rect x="42" y="205" width="210" height="5" rx="2.5" fill="#8f877d" opacity="0.35"/>
    <rect x="28" y="244" width="62" height="4" rx="2" fill="#845a2b"/>
    <rect x="104" y="244" width="62" height="4" rx="2" fill="#c9a968"/>
    <rect x="180" y="244" width="62" height="4" rx="2" fill="#11100f"/>
  </g>
  <g font-family="Microsoft YaHei, Segoe UI, Arial, sans-serif">
    <text x="72" y="82" fill="#c9a968" font-size="14" font-weight="700" letter-spacing="3">本地优先 · 长篇小说生产工作台</text>
    <text x="72" y="157" fill="#f4eadc" font-family="Microsoft YaHei, serif" font-size="56" font-weight="700">AI 小说作家</text>
    <text x="72" y="202" fill="#bfb6aa" font-size="21">把灵感推进为可管理、可审稿、可定稿的长篇小说。</text>
    <text x="72" y="248" fill="#8f877d" font-size="15">故事架构 · 角色图谱 · 章节蓝图 · 草稿 · 审稿 · 定稿</text>
    <rect x="72" y="286" width="134" height="38" rx="19" fill="#845a2b"/>
    <text x="139" y="311" text-anchor="middle" fill="#fff8e8" font-size="14" font-weight="700">Windows x64</text>
    <rect x="220" y="286" width="112" height="38" rx="19" fill="none" stroke="#c9a968" opacity="0.85"/>
    <text x="276" y="311" text-anchor="middle" fill="#c9a968" font-size="14" font-weight="700">中英双语</text>
  </g>
</svg>
